<mxfile host="app.diagrams.net" modified="2023-11-23T20:38:10.303Z" agent="Mozilla/5.0 (Windows NT 10.0; Win64; x64; rv:109.0) Gecko/20100101 Firefox/119.0" etag="1GHUd2zSyyqKbf2rudg2" version="22.1.3" type="device">
  <diagram name="Page-1" id="74e2e168-ea6b-b213-b513-2b3c1d86103e">
    <mxGraphModel dx="969" dy="1133" grid="1" gridSize="10" guides="1" tooltips="1" connect="1" arrows="1" fold="1" page="1" pageScale="1" pageWidth="1100" pageHeight="850" background="none" math="0" shadow="0">
      <root>
        <mxCell id="0" />
        <mxCell id="1" parent="0" />
        <mxCell id="g-Ep9odWdFlU7-CTPNt9-3" value="" style="edgeStyle=orthogonalEdgeStyle;rounded=0;orthogonalLoop=1;jettySize=auto;html=1;" parent="1" source="g-Ep9odWdFlU7-CTPNt9-1" target="g-Ep9odWdFlU7-CTPNt9-2" edge="1">
          <mxGeometry relative="1" as="geometry" />
        </mxCell>
        <mxCell id="g-Ep9odWdFlU7-CTPNt9-1" value="Nutzer startet Applikation im Trainingsmodus" style="ellipse;whiteSpace=wrap;html=1;" parent="1" vertex="1">
          <mxGeometry x="80" y="30" width="120" height="80" as="geometry" />
        </mxCell>
        <mxCell id="g-Ep9odWdFlU7-CTPNt9-5" value="" style="edgeStyle=orthogonalEdgeStyle;rounded=0;orthogonalLoop=1;jettySize=auto;html=1;" parent="1" source="g-Ep9odWdFlU7-CTPNt9-2" target="g-Ep9odWdFlU7-CTPNt9-4" edge="1">
          <mxGeometry relative="1" as="geometry" />
        </mxCell>
        <mxCell id="g-Ep9odWdFlU7-CTPNt9-2" value="Nutzer übergibt eine Trainings-Datenbank" style="whiteSpace=wrap;html=1;" parent="1" vertex="1">
          <mxGeometry x="80" y="130" width="120" height="60" as="geometry" />
        </mxCell>
        <mxCell id="g-Ep9odWdFlU7-CTPNt9-7" value="" style="edgeStyle=orthogonalEdgeStyle;rounded=0;orthogonalLoop=1;jettySize=auto;html=1;" parent="1" source="g-Ep9odWdFlU7-CTPNt9-4" target="g-Ep9odWdFlU7-CTPNt9-6" edge="1">
          <mxGeometry relative="1" as="geometry" />
        </mxCell>
        <mxCell id="g-Ep9odWdFlU7-CTPNt9-20" value="JA" style="edgeLabel;html=1;align=center;verticalAlign=middle;resizable=0;points=[];" parent="g-Ep9odWdFlU7-CTPNt9-7" vertex="1" connectable="0">
          <mxGeometry x="0.5" relative="1" as="geometry">
            <mxPoint as="offset" />
          </mxGeometry>
        </mxCell>
        <mxCell id="g-Ep9odWdFlU7-CTPNt9-38" style="edgeStyle=orthogonalEdgeStyle;rounded=0;orthogonalLoop=1;jettySize=auto;html=1;exitX=1;exitY=0.5;exitDx=0;exitDy=0;entryX=0;entryY=0.5;entryDx=0;entryDy=0;" parent="1" source="g-Ep9odWdFlU7-CTPNt9-4" target="g-Ep9odWdFlU7-CTPNt9-35" edge="1">
          <mxGeometry relative="1" as="geometry" />
        </mxCell>
        <mxCell id="g-Ep9odWdFlU7-CTPNt9-39" value="Nein" style="edgeLabel;html=1;align=center;verticalAlign=middle;resizable=0;points=[];" parent="g-Ep9odWdFlU7-CTPNt9-38" vertex="1" connectable="0">
          <mxGeometry x="-0.25" y="3" relative="1" as="geometry">
            <mxPoint as="offset" />
          </mxGeometry>
        </mxCell>
        <mxCell id="g-Ep9odWdFlU7-CTPNt9-4" value="Sind die benötigten Table in der DB vorhanden?" style="rhombus;whiteSpace=wrap;html=1;" parent="1" vertex="1">
          <mxGeometry x="80" y="210" width="120" height="80" as="geometry" />
        </mxCell>
        <mxCell id="g-Ep9odWdFlU7-CTPNt9-9" value="" style="edgeStyle=orthogonalEdgeStyle;rounded=0;orthogonalLoop=1;jettySize=auto;html=1;" parent="1" source="g-Ep9odWdFlU7-CTPNt9-6" target="g-Ep9odWdFlU7-CTPNt9-8" edge="1">
          <mxGeometry relative="1" as="geometry" />
        </mxCell>
        <mxCell id="g-Ep9odWdFlU7-CTPNt9-21" value="JA" style="edgeLabel;html=1;align=center;verticalAlign=middle;resizable=0;points=[];" parent="g-Ep9odWdFlU7-CTPNt9-9" vertex="1" connectable="0">
          <mxGeometry x="0.6" y="-1" relative="1" as="geometry">
            <mxPoint as="offset" />
          </mxGeometry>
        </mxCell>
        <mxCell id="g-Ep9odWdFlU7-CTPNt9-37" style="edgeStyle=orthogonalEdgeStyle;rounded=0;orthogonalLoop=1;jettySize=auto;html=1;entryX=0;entryY=0.5;entryDx=0;entryDy=0;" parent="1" source="g-Ep9odWdFlU7-CTPNt9-6" target="g-Ep9odWdFlU7-CTPNt9-36" edge="1">
          <mxGeometry relative="1" as="geometry" />
        </mxCell>
        <mxCell id="g-Ep9odWdFlU7-CTPNt9-40" value="Nein" style="edgeLabel;html=1;align=center;verticalAlign=middle;resizable=0;points=[];" parent="g-Ep9odWdFlU7-CTPNt9-37" vertex="1" connectable="0">
          <mxGeometry x="-0.6" y="-1" relative="1" as="geometry">
            <mxPoint x="2" y="-1" as="offset" />
          </mxGeometry>
        </mxCell>
        <mxCell id="g-Ep9odWdFlU7-CTPNt9-6" value="Sind Daten in den Table vorhanden?" style="rhombus;whiteSpace=wrap;html=1;" parent="1" vertex="1">
          <mxGeometry x="80" y="310" width="120" height="80" as="geometry" />
        </mxCell>
        <mxCell id="g-Ep9odWdFlU7-CTPNt9-11" value="" style="edgeStyle=orthogonalEdgeStyle;rounded=0;orthogonalLoop=1;jettySize=auto;html=1;" parent="1" source="g-Ep9odWdFlU7-CTPNt9-8" target="g-Ep9odWdFlU7-CTPNt9-10" edge="1">
          <mxGeometry relative="1" as="geometry" />
        </mxCell>
        <mxCell id="g-Ep9odWdFlU7-CTPNt9-8" value="einzelnen Datensatz auslesen" style="whiteSpace=wrap;html=1;" parent="1" vertex="1">
          <mxGeometry x="80" y="410" width="120" height="60" as="geometry" />
        </mxCell>
        <mxCell id="g-Ep9odWdFlU7-CTPNt9-13" value="" style="edgeStyle=orthogonalEdgeStyle;rounded=0;orthogonalLoop=1;jettySize=auto;html=1;" parent="1" source="g-Ep9odWdFlU7-CTPNt9-10" target="g-Ep9odWdFlU7-CTPNt9-12" edge="1">
          <mxGeometry relative="1" as="geometry" />
        </mxCell>
        <mxCell id="g-Ep9odWdFlU7-CTPNt9-10" value="CNN-Magic (siehe eigenes Ablaufsdiagramm)" style="whiteSpace=wrap;html=1;" parent="1" vertex="1">
          <mxGeometry x="80" y="490" width="120" height="60" as="geometry" />
        </mxCell>
        <mxCell id="g-Ep9odWdFlU7-CTPNt9-15" value="" style="edgeStyle=orthogonalEdgeStyle;rounded=0;orthogonalLoop=1;jettySize=auto;html=1;" parent="1" source="g-Ep9odWdFlU7-CTPNt9-12" target="g-Ep9odWdFlU7-CTPNt9-14" edge="1">
          <mxGeometry relative="1" as="geometry" />
        </mxCell>
        <mxCell id="g-Ep9odWdFlU7-CTPNt9-12" value="10 Outputs al Dezimalzahl erhalten" style="whiteSpace=wrap;html=1;" parent="1" vertex="1">
          <mxGeometry x="80" y="570" width="120" height="60" as="geometry" />
        </mxCell>
        <mxCell id="g-Ep9odWdFlU7-CTPNt9-17" value="" style="edgeStyle=orthogonalEdgeStyle;rounded=0;orthogonalLoop=1;jettySize=auto;html=1;entryX=0;entryY=0.5;entryDx=0;entryDy=0;" parent="1" source="g-Ep9odWdFlU7-CTPNt9-14" target="g-Ep9odWdFlU7-CTPNt9-18" edge="1">
          <mxGeometry relative="1" as="geometry">
            <mxPoint x="140" y="730" as="targetPoint" />
            <Array as="points">
              <mxPoint x="220" y="680" />
              <mxPoint x="220" y="620" />
            </Array>
          </mxGeometry>
        </mxCell>
        <mxCell id="g-Ep9odWdFlU7-CTPNt9-14" value="höchsten Output ermittel und dessen korrespondierende Ziffer" style="whiteSpace=wrap;html=1;" parent="1" vertex="1">
          <mxGeometry x="80" y="650" width="120" height="60" as="geometry" />
        </mxCell>
        <mxCell id="g-Ep9odWdFlU7-CTPNt9-24" value="" style="edgeStyle=orthogonalEdgeStyle;rounded=0;orthogonalLoop=1;jettySize=auto;html=1;exitX=0.5;exitY=1;exitDx=0;exitDy=0;" parent="1" source="g-Ep9odWdFlU7-CTPNt9-18" target="g-Ep9odWdFlU7-CTPNt9-23" edge="1">
          <mxGeometry relative="1" as="geometry">
            <Array as="points">
              <mxPoint x="320" y="670" />
            </Array>
          </mxGeometry>
        </mxCell>
        <mxCell id="g-Ep9odWdFlU7-CTPNt9-25" value="JA" style="edgeLabel;html=1;align=center;verticalAlign=middle;resizable=0;points=[];" parent="g-Ep9odWdFlU7-CTPNt9-24" vertex="1" connectable="0">
          <mxGeometry x="0.5333" y="2" relative="1" as="geometry">
            <mxPoint as="offset" />
          </mxGeometry>
        </mxCell>
        <mxCell id="g-Ep9odWdFlU7-CTPNt9-32" value="" style="edgeStyle=orthogonalEdgeStyle;rounded=0;orthogonalLoop=1;jettySize=auto;html=1;" parent="1" source="g-Ep9odWdFlU7-CTPNt9-18" target="g-Ep9odWdFlU7-CTPNt9-31" edge="1">
          <mxGeometry relative="1" as="geometry" />
        </mxCell>
        <mxCell id="g-Ep9odWdFlU7-CTPNt9-33" value="Nein" style="edgeLabel;html=1;align=center;verticalAlign=middle;resizable=0;points=[];" parent="g-Ep9odWdFlU7-CTPNt9-32" vertex="1" connectable="0">
          <mxGeometry x="-0.075" y="1" relative="1" as="geometry">
            <mxPoint as="offset" />
          </mxGeometry>
        </mxCell>
        <mxCell id="g-Ep9odWdFlU7-CTPNt9-18" value="Abgleich der Ziffer mit dem erwarteten Ergebnis ist kongruent" style="rhombus;whiteSpace=wrap;html=1;" parent="1" vertex="1">
          <mxGeometry x="260" y="580" width="120" height="80" as="geometry" />
        </mxCell>
        <mxCell id="g-Ep9odWdFlU7-CTPNt9-26" style="edgeStyle=orthogonalEdgeStyle;rounded=0;orthogonalLoop=1;jettySize=auto;html=1;entryX=0;entryY=0.5;entryDx=0;entryDy=0;exitX=0.5;exitY=1;exitDx=0;exitDy=0;" parent="1" source="g-Ep9odWdFlU7-CTPNt9-23" target="g-Ep9odWdFlU7-CTPNt9-8" edge="1">
          <mxGeometry relative="1" as="geometry">
            <Array as="points">
              <mxPoint x="450" y="750" />
              <mxPoint x="40" y="750" />
              <mxPoint x="40" y="440" />
            </Array>
          </mxGeometry>
        </mxCell>
        <mxCell id="g-Ep9odWdFlU7-CTPNt9-27" value="JA" style="edgeLabel;html=1;align=center;verticalAlign=middle;resizable=0;points=[];" parent="g-Ep9odWdFlU7-CTPNt9-26" vertex="1" connectable="0">
          <mxGeometry x="-0.3529" y="-1" relative="1" as="geometry">
            <mxPoint as="offset" />
          </mxGeometry>
        </mxCell>
        <mxCell id="g-Ep9odWdFlU7-CTPNt9-29" value="" style="edgeStyle=orthogonalEdgeStyle;rounded=0;orthogonalLoop=1;jettySize=auto;html=1;" parent="1" source="g-Ep9odWdFlU7-CTPNt9-23" target="g-Ep9odWdFlU7-CTPNt9-28" edge="1">
          <mxGeometry relative="1" as="geometry" />
        </mxCell>
        <mxCell id="g-Ep9odWdFlU7-CTPNt9-30" value="Nein" style="edgeLabel;html=1;align=center;verticalAlign=middle;resizable=0;points=[];" parent="g-Ep9odWdFlU7-CTPNt9-29" vertex="1" connectable="0">
          <mxGeometry x="0.6667" y="-1" relative="1" as="geometry">
            <mxPoint as="offset" />
          </mxGeometry>
        </mxCell>
        <mxCell id="g-Ep9odWdFlU7-CTPNt9-23" value="Sind noch Daten vorhanden welche noch nicht behandelt wurden?" style="rhombus;whiteSpace=wrap;html=1;" parent="1" vertex="1">
          <mxGeometry x="390" y="630" width="120" height="80" as="geometry" />
        </mxCell>
        <mxCell id="g-Ep9odWdFlU7-CTPNt9-28" value="Training wird beendet" style="ellipse;whiteSpace=wrap;html=1;" parent="1" vertex="1">
          <mxGeometry x="390" y="510" width="120" height="80" as="geometry" />
        </mxCell>
        <mxCell id="g-Ep9odWdFlU7-CTPNt9-34" style="edgeStyle=orthogonalEdgeStyle;rounded=0;orthogonalLoop=1;jettySize=auto;html=1;entryX=1;entryY=0.5;entryDx=0;entryDy=0;exitX=1;exitY=0.5;exitDx=0;exitDy=0;" parent="1" source="g-Ep9odWdFlU7-CTPNt9-31" target="g-Ep9odWdFlU7-CTPNt9-23" edge="1">
          <mxGeometry relative="1" as="geometry">
            <Array as="points">
              <mxPoint x="530" y="470" />
              <mxPoint x="530" y="670" />
            </Array>
          </mxGeometry>
        </mxCell>
        <mxCell id="g-Ep9odWdFlU7-CTPNt9-31" value="Anpassung der einzelnen Knotenpunkte in den FC-Layern" style="whiteSpace=wrap;html=1;" parent="1" vertex="1">
          <mxGeometry x="260" y="440" width="120" height="60" as="geometry" />
        </mxCell>
        <mxCell id="g-Ep9odWdFlU7-CTPNt9-35" value="Error, dass die DB nicht korrekt gebaut ist" style="ellipse;whiteSpace=wrap;html=1;" parent="1" vertex="1">
          <mxGeometry x="240" y="210" width="120" height="80" as="geometry" />
        </mxCell>
        <mxCell id="g-Ep9odWdFlU7-CTPNt9-36" value="Error, dass die DB keine Daten beinhaltet" style="ellipse;whiteSpace=wrap;html=1;" parent="1" vertex="1">
          <mxGeometry x="240" y="310" width="120" height="80" as="geometry" />
        </mxCell>
      </root>
    </mxGraphModel>
  </diagram>
</mxfile>
